<svg xmlns="http://www.w3.org/2000/svg" viewBox="0 0 2172 724" width="2172" height="724">
<g fill="#39FF14" fill-rule="evenodd"><path d="M 138.0,353.0 55.0,366.0 48.0,371.0 41.0,390.0 41.0,417.0 49.0,441.0 63.0,457.0 152.0,443.0 148.0,432.0 68.0,445.0 59.0,432.0 53.0,411.0 54.0,389.0 60.0,377.0 138.0,364.0 Z"/><path d="M 1828.0,319.0 1744.0,320.0 1689.0,465.0 1602.0,464.0 1602.0,459.0 1655.0,328.0 1656.0,322.0 1573.0,322.0 1510.0,482.0 1509.0,498.0 1514.0,513.0 1528.0,526.0 1545.0,531.0 1704.0,531.0 1719.0,528.0 1735.0,521.0 1754.0,506.0 1765.0,489.0 1825.0,331.0 Z"/><path d="M 462.0,265.0 449.0,271.0 438.0,282.0 426.0,305.0 420.0,339.0 422.0,372.0 432.0,408.0 440.0,424.0 451.0,439.0 461.0,448.0 473.0,455.0 491.0,457.0 504.0,452.0 517.0,440.0 530.0,416.0 536.0,387.0 536.0,359.0 534.0,344.0 524.0,311.0 516.0,296.0 507.0,284.0 495.0,273.0 484.0,267.0 477.0,265.0 Z M 470.0,300.0 485.0,302.0 497.0,312.0 508.0,331.0 514.0,355.0 515.0,376.0 510.0,400.0 503.0,413.0 490.0,422.0 478.0,421.0 472.0,418.0 462.0,408.0 452.0,390.0 446.0,368.0 445.0,341.0 450.0,320.0 454.0,312.0 463.0,303.0 Z"/><path d="M 2128.0,333.0 2120.0,324.0 2104.0,318.0 1956.0,320.0 1912.0,319.0 1911.0,318.0 1944.0,218.0 1950.0,195.0 1859.0,263.0 1766.0,531.0 2022.0,531.0 2034.0,529.0 2055.0,520.0 2074.0,504.0 2086.0,484.0 2131.0,362.0 2132.0,343.0 Z M 2035.0,380.0 2010.0,447.0 2001.0,466.0 1874.0,465.0 1901.0,384.0 1904.0,380.0 Z"/><path d="M 271.0,175.0 243.0,191.0 221.0,211.0 204.0,233.0 191.0,257.0 177.0,298.0 172.0,326.0 170.0,365.0 173.0,400.0 181.0,439.0 195.0,479.0 208.0,505.0 231.0,537.0 252.0,557.0 278.0,573.0 294.0,579.0 302.0,580.0 304.0,582.0 329.0,582.0 328.0,572.0 305.0,558.0 290.0,546.0 271.0,526.0 252.0,499.0 238.0,472.0 228.0,446.0 216.0,393.0 213.0,341.0 217.0,302.0 222.0,280.0 236.0,243.0 248.0,223.0 259.0,209.0 259.0,203.0 Z"/><path d="M 1622.0,150.0 1497.0,237.0 1455.0,346.0 1328.0,346.0 1327.0,344.0 1368.0,235.0 1283.0,235.0 1142.0,604.0 1272.0,496.0 1302.0,418.0 1427.0,418.0 1427.0,422.0 1384.0,531.0 1475.0,531.0 1552.0,326.0 Z"/><path d="M 396.0,116.0 374.0,120.0 360.0,125.0 344.0,133.0 327.0,145.0 306.0,167.0 284.0,201.0 268.0,242.0 260.0,279.0 257.0,308.0 259.0,367.0 266.0,408.0 280.0,454.0 297.0,491.0 323.0,530.0 356.0,563.0 385.0,581.0 417.0,591.0 433.0,592.0 436.0,594.0 450.0,593.0 476.0,587.0 499.0,577.0 526.0,559.0 545.0,541.0 564.0,516.0 579.0,488.0 591.0,452.0 596.0,423.0 577.0,468.0 555.0,505.0 528.0,534.0 514.0,544.0 483.0,557.0 472.0,559.0 452.0,559.0 436.0,556.0 422.0,551.0 403.0,541.0 387.0,529.0 370.0,512.0 355.0,493.0 333.0,454.0 321.0,423.0 309.0,371.0 306.0,342.0 306.0,303.0 309.0,276.0 321.0,231.0 336.0,200.0 349.0,182.0 369.0,163.0 383.0,154.0 401.0,147.0 418.0,144.0 434.0,144.0 451.0,147.0 473.0,155.0 491.0,165.0 511.0,180.0 538.0,208.0 558.0,236.0 572.0,262.0 583.0,289.0 593.0,325.0 612.0,328.0 608.0,306.0 593.0,263.0 576.0,229.0 553.0,195.0 527.0,166.0 501.0,145.0 463.0,125.0 425.0,116.0 Z"/></g>
<g fill="#050505" fill-rule="evenodd"><path d="M 1027.0,354.0 968.0,356.0 937.0,359.0 867.0,531.0 957.0,531.0 959.0,529.0 Z"/><path d="M 139.0,353.0 139.0,364.0 136.0,366.0 59.0,379.0 54.0,395.0 54.0,410.0 59.0,429.0 68.0,444.0 147.0,431.0 144.0,421.0 139.0,386.0 Z"/><path d="M 471.0,301.0 463.0,304.0 456.0,311.0 451.0,321.0 446.0,343.0 447.0,367.0 454.0,392.0 463.0,408.0 474.0,418.0 481.0,421.0 489.0,421.0 496.0,418.0 503.0,411.0 510.0,397.0 514.0,373.0 512.0,349.0 506.0,329.0 494.0,310.0 482.0,302.0 Z"/><path d="M 1057.0,269.0 970.0,277.0 946.0,336.0 988.0,335.0 1034.0,331.0 Z"/><path d="M 1169.0,259.0 1102.0,265.0 1086.0,268.0 1000.0,483.0 999.0,496.0 1002.0,508.0 1006.0,515.0 1017.0,525.0 1037.0,531.0 1151.0,530.0 1178.0,462.0 1100.0,462.0 1097.0,459.0 1097.0,455.0 1129.0,377.0 1188.0,375.0 1228.0,333.0 1236.0,314.0 1212.0,313.0 1149.0,315.0 1148.0,313.0 Z"/><path d="M 257.0,175.0 227.0,184.0 206.0,197.0 185.0,218.0 170.0,241.0 156.0,275.0 148.0,306.0 144.0,344.0 145.0,390.0 152.0,439.0 163.0,477.0 180.0,514.0 198.0,539.0 215.0,556.0 244.0,574.0 274.0,582.0 302.0,582.0 280.0,575.0 257.0,562.0 229.0,536.0 218.0,522.0 204.0,500.0 186.0,459.0 175.0,419.0 170.0,384.0 169.0,350.0 172.0,318.0 178.0,290.0 189.0,259.0 201.0,236.0 218.0,213.0 240.0,192.0 270.0,174.0 Z"/><path d="M 1095.0,160.0 705.0,215.0 600.0,476.0 541.0,610.0 626.0,547.0 683.0,502.0 708.0,437.0 721.0,409.0 839.0,396.0 940.0,314.0 748.0,331.0 748.0,327.0 767.0,281.0 964.0,254.0 Z"/><path d="M 316.0,154.0 297.0,170.0 258.0,211.0 241.0,236.0 233.0,252.0 224.0,277.0 216.0,317.0 214.0,354.0 217.0,392.0 225.0,432.0 235.0,462.0 255.0,502.0 273.0,527.0 296.0,550.0 331.0,573.0 364.0,588.0 393.0,595.0 431.0,595.0 433.0,594.0 403.0,589.0 375.0,577.0 357.0,565.0 335.0,545.0 307.0,510.0 293.0,486.0 280.0,457.0 267.0,417.0 259.0,377.0 256.0,345.0 256.0,304.0 261.0,266.0 268.0,238.0 279.0,209.0 298.0,176.0 Z"/><path d="M 411.0,146.0 390.0,152.0 378.0,158.0 362.0,170.0 341.0,194.0 329.0,215.0 317.0,246.0 309.0,284.0 307.0,339.0 310.0,370.0 317.0,405.0 329.0,442.0 346.0,477.0 367.0,507.0 392.0,532.0 420.0,549.0 445.0,557.0 471.0,558.0 500.0,550.0 525.0,535.0 550.0,510.0 568.0,483.0 582.0,455.0 597.0,417.0 599.0,371.0 595.0,334.0 581.0,287.0 569.0,258.0 553.0,230.0 531.0,201.0 502.0,174.0 486.0,163.0 468.0,154.0 440.0,146.0 Z M 467.0,263.0 487.0,267.0 498.0,274.0 513.0,290.0 528.0,318.0 533.0,334.0 537.0,357.0 536.0,396.0 527.0,426.0 519.0,439.0 510.0,449.0 501.0,455.0 492.0,458.0 480.0,458.0 473.0,456.0 458.0,447.0 448.0,437.0 436.0,419.0 429.0,403.0 420.0,366.0 420.0,326.0 428.0,297.0 436.0,283.0 445.0,273.0 456.0,266.0 Z"/></g>
</svg>